<svg width="106" height="106" viewBox="0 0 106 106" fill="none" xmlns="http://www.w3.org/2000/svg">
<path d="M62.8984 62.8984L75.3772 75.3772M75.0428 85.4851C74.3213 84.8076 73.7433 83.9921 73.3431 83.0869C72.9429 82.1818 72.7286 81.2054 72.713 80.2158C72.6975 79.2263 72.8809 78.2436 73.2524 77.3263C73.624 76.409 74.176 75.5757 74.8759 74.8759C75.5757 74.176 76.409 73.624 77.3263 73.2524C78.2436 72.8809 79.2263 72.6975 80.2158 72.713C81.2054 72.7286 82.1818 72.9429 83.0869 73.3431C83.9921 73.7433 84.8076 74.3213 85.4851 75.0428L100.669 90.227C101.391 90.9045 101.969 91.72 102.369 92.6252C102.769 93.5304 102.984 94.5067 102.999 95.4963C103.015 96.4859 102.831 97.4685 102.46 98.3858C102.088 99.3031 101.536 100.136 100.836 100.836C100.136 101.536 99.3031 102.088 98.3858 102.46C97.4685 102.831 96.4859 103.015 95.4963 102.999C94.5067 102.984 93.5304 102.769 92.6252 102.369C91.72 101.969 90.9045 101.391 90.227 100.669L75.0428 85.4851ZM72.8815 37.9407C72.8815 28.6739 69.2002 19.7866 62.6476 13.2339C56.0949 6.68124 47.2076 3 37.9407 3C28.6739 3 19.7866 6.68124 13.2339 13.2339C6.68124 19.7866 3 28.6739 3 37.9407C3 47.2076 6.68124 56.0949 13.2339 62.6476C19.7866 69.2002 28.6739 72.8815 37.9407 72.8815C47.2076 72.8815 56.0949 69.2002 62.6476 62.6476C69.2002 56.0949 72.8815 47.2076 72.8815 37.9407Z" stroke="black" stroke-width="5" stroke-linecap="round" stroke-linejoin="round"/>
</svg>
