<svg width="106" height="106" viewBox="0 0 106 106" fill="none" xmlns="http://www.w3.org/2000/svg">
<path d="M38.1466 10.4994V3M17.9985 17.9987L12.999 12.9991M10.4993 38.147H3M17.9985 57.9952L12.999 62.9948M62.9942 12.9991L57.9946 17.9987M46.9607 95.942C34.6069 96.7919 22.3631 39.1769 30.7723 30.7726C39.1715 22.3683 96.7909 34.5973 95.941 46.9512C95.351 55.0405 81.6573 58.2402 82.0573 65.4346C82.1723 67.5344 84.837 69.4592 90.1565 73.2989C93.8562 75.9637 97.6208 78.5535 101.255 81.3082C101.952 81.8475 102.475 82.5793 102.759 83.413C103.043 84.2466 103.077 85.1453 102.855 85.9978C101.87 90.0875 99.774 93.8257 96.7993 96.8003C93.8247 99.775 90.0866 101.871 85.9969 102.856C85.1452 103.077 84.2475 103.043 83.4149 102.759C82.5823 102.474 81.8513 101.952 81.3124 101.256C78.5626 97.6218 75.9679 93.8521 73.2982 90.1575C69.4635 84.8329 67.5437 82.1731 65.4389 82.0582C58.2496 81.6582 55.0499 95.357 46.9607 95.942Z" stroke="black" stroke-width="5" stroke-linecap="round" stroke-linejoin="round"/>
</svg>
