<svg width="20" height="20" viewBox="0 0 24 24" fill="none" xmlns="http://www.w3.org/2000/svg" class="css-38m9qv">
<path d="M12.5998 4.99996C14.8016 5.03268 16.8389 5.58773 18.6042 6.94778C19.862 7.91683 20.7554 9.14041 21.0621 10.731C21.3631 12.2929 21.0115 13.7199 20.1028 15.0084C18.9651 16.6224 17.3633 17.5659 15.4988 18.1097C14.4791 18.4072 13.4344 18.5288 12.3744 18.513C12.0524 18.5084 11.7299 18.4716 11.4099 18.4317C11.1804 18.4031 10.9847 18.4338 10.7854 18.5697C9.75345 19.2756 8.71336 19.9686 7.67531 20.6658C7.55724 20.745 7.44122 20.8569 7.28687 20.7373C7.14376 20.6264 7.18312 20.4843 7.22145 20.3412C7.45707 19.4631 7.68451 18.583 7.93188 17.708C7.9881 17.5087 7.93648 17.4259 7.76373 17.3318C6.4594 16.6209 5.36001 15.6805 4.67769 14.3429C3.59415 12.2183 3.82926 10.1795 5.2445 8.28789C6.35104 6.80927 7.8823 5.93886 9.62925 5.42214C10.5968 5.13643 11.5878 4.99588 12.5998 4.99996Z" fill="#3F1C1E">
</path>
</svg>